<svg width="216" height="216" viewBox="0 0 216 216" fill="none" xmlns="http://www.w3.org/2000/svg">
<g clip-path="url(#clip0_102_278)">
<rect x="0.0751038" y="1.52588e-05" width="215.26" height="215.26" rx="107.63" fill="#FFB800" fill-opacity="0.6"/>
<path d="M118.989 198.932C124.552 223.096 149.163 302.224 172.302 311.109C187.466 317.079 266.949 313.946 280.225 300.715C285.996 294.922 280.125 244.547 271.396 245.015C262.666 245.483 200.682 254.834 194.705 251.908C188.728 248.982 150.595 188 135.147 171.904C108.81 144.112 116.012 185.928 118.989 198.932Z" fill="#EB9481"/>
<path d="M181.54 228.038L174.433 232.042L129.993 257.053C122.489 235.172 116.399 212.833 111.76 190.172C107.512 166.553 112.401 153.758 123.967 159.39C128.488 161.476 133.947 166.525 140.325 174.742L181.54 228.038Z" fill="#FFC727"/>
<path d="M174.433 232.042L129.993 257.053C122.489 235.172 116.399 212.833 111.76 190.172C107.512 166.553 112.401 153.758 123.967 159.39L174.433 232.042Z" fill="#263238"/>
<path d="M199.41 302.407C197.677 305.183 124.215 323.903 77.9101 335.16C56.7097 340.277 41.2648 343.867 40.9565 343.603C38.4108 341.539 30.8975 219.327 72.0684 164.694C72.8467 163.656 73.6846 162.663 74.5777 161.721C89.0902 146.499 112.444 151.257 116.15 152.359C123.157 154.404 137.279 171.347 145.237 187.224C154.311 205.277 200.969 299.952 199.41 302.407Z" fill="#FFC727"/>
<path d="M74.5979 161.833L77.9151 335.188C56.7147 340.305 41.2698 343.895 40.9615 343.631C38.4158 341.567 30.9025 219.355 72.0734 164.722C72.8592 163.712 73.7021 162.747 74.5979 161.833Z" fill="#263238"/>
<path d="M230.901 227.162C235.3 222.641 240.173 218.605 245.435 215.126C252.513 210.954 268.298 203.128 270.938 200.885L275.92 199.409L267.03 311.177L224.931 333.244L145.868 330.33L149.955 225.224L155.006 223.649C155.006 223.649 165.145 224.406 173.314 224.212C181.484 224.018 208.652 218.871 230.901 227.162Z" fill="white"/>
<path d="M218.813 337.592L225.249 230.556L146.415 225.049L141.995 333.781L218.813 337.592Z" fill="#37474F"/>
<path d="M229.653 335.642L236.23 228.581L277.916 198.093L268.32 311.902L229.653 335.642Z" fill="#37474F"/>
<path d="M50.0701 188.104C35.7343 208.339 -8.23748 286.408 0.418821 309.552C6.05567 324.773 93.9631 340.593 112.633 341.555C120.807 342.027 127.718 285.671 121.564 279.501C115.409 273.331 63.3721 276.572 61.5133 270.268C59.6546 263.963 79.2233 204.315 81.0316 182.13C84.1794 144.019 57.8062 177.117 50.0701 188.104Z" fill="#EB9481"/>
<path d="M85.5166 188.368C93.4973 152.143 76.8191 150.649 55.4395 176.209C40.9824 194.233 27.6923 213.163 15.6506 232.883L70.9183 254.051C70.9183 254.051 80.3147 211.512 85.5166 188.368Z" fill="#FFC727"/>
<path d="M83.5705 199.793C82.5482 204.587 81.6714 209.383 80.7945 214.18C81.7322 212.3 82.7642 210.462 83.8625 208.67C83.1169 210.167 82.4326 211.682 81.7714 213.163L80.6775 215.302L80.4444 215.779C79.7508 219.499 79.0341 223.252 78.2231 226.964C77.2575 231.428 76.1926 235.823 75.1327 240.247C74.0728 244.67 72.3787 249.759 71.4664 254.359C71.5321 254.724 66.5242 252.348 66.0467 252.434C65.5693 252.52 65.6576 251.721 66.1064 251.959C66.5551 252.198 70.9807 253.431 71.065 253.416C72.153 248.987 72.7232 244.42 73.6606 239.961C74.5981 235.501 75.5125 231.075 76.5393 226.629C78.6187 217.557 81.2362 208.737 83.3026 199.754C83.4229 199.617 83.5784 199.676 83.5705 199.793Z" fill="#263238"/>
<path d="M118.536 185.938C109.96 188.872 93.5701 176.889 86.561 166.61C86.2171 160.485 86.187 154.346 86.4709 148.217C86.4717 142.418 86.2879 135.754 85.7046 129.771C85.4875 128.563 89.963 130.397 89.963 130.397L97.8777 131.524L124.061 135.252C122.646 142.978 122.192 150.85 122.71 158.688C122.771 159.516 122.918 160.335 123.149 161.132L123.22 161.525C124.482 165.965 126.836 183.082 118.536 185.938Z" fill="#EB9481"/>
<path d="M123.18 160.981L123.251 161.374C122.006 161.696 120.738 161.924 119.459 162.056C94.1409 163.943 87.9869 132.144 87.9869 132.144L98.0103 131.617L124.194 135.344C122.778 143.071 122.325 150.943 122.842 158.781C122.886 159.523 122.999 160.26 123.18 160.981Z" fill="#263238"/>
<path d="M76.8311 74.6298C71.5487 90.3947 76.9956 130.352 88.0239 140.893C104.025 156.193 130.821 158.331 143.948 138.952C156.694 120.192 149.156 69.7396 136.784 60.1072C118.545 45.9054 84.6212 51.3689 76.8311 74.6298Z" fill="#EB9481"/>
<path d="M80.2816 112.191C88.2011 110.767 83.1441 89.9037 83.1441 89.9037C83.1441 89.9037 95.6024 87.924 97.9781 69.3768C97.9781 69.3768 107.093 90.2351 140.093 84.7929C141.112 82.0061 141.533 79.0363 141.33 76.0761C141.128 73.1158 140.305 70.2313 138.916 67.6094C142.446 73.1852 145.507 79.0446 148.068 85.1271C148.068 85.1271 154.813 57.1835 130.864 48.4733C121.31 45.0021 107.095 46.3991 85.9024 58.0094C85.9024 58.0094 81.1976 45.2294 78.7951 47.0241C76.3927 48.8188 81.6683 60.7424 81.6683 60.7424C81.6683 60.7424 72.0514 58.2102 70.5341 60.2516C69.0168 62.293 78.4922 64.0389 78.4922 64.0389C74.2996 65.7381 70.8588 68.8898 68.7989 72.9175C66.7391 76.9453 66.198 81.5799 67.2746 85.9738C70.2217 101.07 76.3499 112.899 80.2816 112.191Z" fill="#263238"/>
<path d="M135.363 86.5423C131.214 87.8734 126.823 88.2771 122.5 87.725C118.677 87.1045 114.996 85.8025 111.633 83.8811C108.348 81.9517 105.474 79.395 103.176 76.3566C100.831 72.9539 99.1175 69.1573 98.1163 65.1481C98.0759 64.9234 97.6676 64.9099 97.667 65.2289C97.8436 69.4066 99.1434 73.4595 101.43 76.9607C103.509 80.4611 106.424 83.3919 109.913 85.4913C113.402 87.5906 117.356 88.7931 121.423 88.9914C126.192 88.8167 130.93 88.1492 135.561 86.9995C135.753 86.9361 135.639 86.4637 135.363 86.5423Z" fill="#263238"/>
<path d="M81.0658 63.518C76.8617 63.5367 72.8114 65.1016 69.6869 67.9145C66.5624 70.7275 64.5822 74.5917 64.1236 78.7708C63.854 83.6613 64.7328 88.547 66.6895 93.0372C68.6352 97.7253 71.1835 102.14 74.2699 106.17C74.3154 106.422 74.7754 106.079 74.5946 105.879C71.9029 102.05 69.8142 97.8299 68.4013 93.3671C66.8296 89.1618 65.926 84.7363 65.7236 80.2515C65.7615 76.1006 67.3578 72.1155 70.1962 69.0865C73.0345 66.0574 76.9075 64.2056 81.0472 63.8983C81.3763 63.9551 81.3517 63.4956 81.0658 63.518Z" fill="#263238"/>
<path d="M111.649 44.4783C106.055 46.0098 100.68 48.2529 95.6571 51.1525C90.7635 53.7032 86.3393 57.0675 82.5736 61.1014C82.4074 61.3053 82.6696 61.635 82.892 61.4211C91.2601 54.9803 100.729 50.114 110.838 47.0596C120.054 43.9813 131.114 43.4128 138.583 50.7671C138.583 50.7671 138.892 50.7115 138.807 50.7267C132.074 42.9502 120.992 42.1022 111.649 44.4783Z" fill="#263238"/>
<path d="M116.485 105.216C111.441 105.544 112.56 115.635 117.149 115.36C121.739 115.085 120.75 104.913 116.485 105.216Z" fill="#263238"/>
<path d="M139.778 103.839C144.82 103.338 145.479 113.454 140.813 113.945C136.147 114.436 135.538 104.283 139.778 103.839Z" fill="#263238"/>
<path d="M112.59 99.6834C113.636 99.277 114.655 98.8032 115.64 98.2651C116.785 97.9227 117.78 97.2021 118.462 96.2211C118.647 95.8792 118.711 95.4843 118.642 95.1015C118.573 94.7186 118.376 94.3707 118.083 94.1148C117.422 93.7319 116.672 93.5302 115.909 93.5301C115.145 93.53 114.395 93.7315 113.734 94.1142C112.27 94.6956 111.074 95.7991 110.377 97.2113C110.25 97.5315 110.215 97.8808 110.276 98.22C110.336 98.5591 110.49 98.8747 110.72 99.1314C110.949 99.388 111.246 99.5756 111.577 99.6732C111.907 99.7707 112.258 99.7742 112.59 99.6834Z" fill="#263238"/>
<path d="M143.142 96.9138C142.02 96.7953 140.904 96.6186 139.8 96.3843C138.61 96.3735 137.457 95.9693 136.52 95.2347C136.272 94.9417 136.127 94.5761 136.105 94.193C136.083 93.81 136.186 93.4302 136.399 93.111C136.922 92.5498 137.586 92.1386 138.321 91.9197C139.057 91.7008 139.837 91.6822 140.582 91.8659C142.179 92.0455 143.651 92.8146 144.71 94.0226C144.899 94.3037 145.008 94.6314 145.025 94.97C145.041 95.3087 144.964 95.6453 144.802 95.9433C144.641 96.2413 144.401 96.4894 144.108 96.6605C143.815 96.8316 143.481 96.9192 143.142 96.9138Z" fill="#263238"/>
<path d="M118.784 130.895C119.344 131.751 119.87 132.904 120.977 133.255C122.125 133.464 123.304 133.439 124.443 133.183C124.443 133.183 124.636 133.293 124.478 133.379C123.897 133.882 123.192 134.219 122.436 134.355C121.68 134.491 120.901 134.421 120.181 134.152C119.595 133.849 119.109 133.381 118.784 132.806C118.46 132.231 118.309 131.574 118.352 130.915C118.444 130.783 118.702 130.765 118.784 130.895Z" fill="#263238"/>
<path d="M118.419 122.901L118.278 122.927C115.688 123.34 113.034 122.984 110.645 121.902C108.256 120.819 106.238 119.059 104.841 116.839C103.444 114.62 102.73 112.038 102.788 109.416C102.846 106.794 103.673 104.247 105.167 102.091C106.426 100.292 108.11 98.831 110.069 97.8379C112.028 96.8449 114.202 96.3504 116.398 96.3984C118.594 96.4463 120.744 97.0352 122.658 98.1128C124.572 99.1904 126.191 100.723 127.371 102.576C128.55 104.429 129.255 106.544 129.422 108.734C129.589 110.924 129.213 113.122 128.328 115.132C127.442 117.142 126.075 118.903 124.346 120.258C122.618 121.613 120.582 122.521 118.419 122.901ZM114.065 98.6935C111.175 99.2252 108.601 100.851 106.879 103.233C106.025 104.438 105.419 105.802 105.096 107.243C104.773 108.685 104.74 110.176 104.998 111.631C105.229 113.087 105.751 114.481 106.534 115.73C107.317 116.979 108.343 118.058 109.552 118.901C110.753 119.756 112.111 120.366 113.549 120.694C114.986 121.023 116.474 121.064 117.927 120.815C120.837 120.285 123.419 118.629 125.116 116.208C126.814 113.786 127.488 110.793 126.994 107.878C126.758 106.417 126.236 105.017 125.456 103.759C124.677 102.501 123.656 101.409 122.452 100.548C121.249 99.6861 119.887 99.0712 118.445 98.7385C117.003 98.4058 115.509 98.3619 114.05 98.6092L114.065 98.6935Z" fill="#FFC727"/>
<path d="M146.416 121.722C145.014 121.922 143.585 121.793 142.241 121.345C140.898 120.897 139.677 120.143 138.675 119.142C136.339 116.927 134.795 114.007 134.28 110.829C133.038 103.921 136.587 97.5419 142.036 96.562C143.442 96.3503 144.878 96.473 146.228 96.9203C147.578 97.3677 148.803 98.127 149.805 99.1366C152.152 101.342 153.699 104.267 154.199 107.45C155.352 114.345 152.032 120.712 146.416 121.722ZM142.274 98.6935C138.005 99.4613 135.3 104.731 136.279 110.499C136.69 113.205 137.974 115.702 139.936 117.611C140.708 118.383 141.647 118.967 142.68 119.319C143.713 119.671 144.814 119.781 145.896 119.641C150.193 118.868 152.898 113.598 151.919 107.831C151.499 105.123 150.205 102.627 148.234 100.724C147.478 99.9383 146.545 99.3442 145.514 98.9903C144.482 98.6365 143.381 98.533 142.302 98.6885L142.274 98.6935Z" fill="#FFC727"/>
<path d="M132.053 121.174C132.053 121.174 132.881 125.78 132.811 127.967C132.846 128.163 132.29 128.292 131.544 128.34C129.675 128.705 127.742 128.552 125.953 127.898C124.164 127.244 122.588 126.113 121.396 124.627C121.364 124.583 121.349 124.529 121.353 124.475C121.357 124.421 121.381 124.37 121.42 124.331C121.458 124.293 121.509 124.269 121.564 124.265C121.618 124.261 121.672 124.277 121.716 124.309C124.532 126.172 127.878 127.066 131.248 126.856C131.4 126.249 129.819 118.909 130.092 118.975C131.549 119.177 134.123 119.787 135.087 119.991C134.552 117.014 133.021 108.504 132.422 103.075C132.361 102.738 132.89 102.614 132.983 102.974C134.86 109.189 136.328 115.52 137.378 121.927C137.316 122.228 132.93 121.538 132.053 121.174Z" fill="#263238"/>
<path d="M134.691 108.436C132.53 106.418 129.018 109.137 129.024 109.165L127.707 107.489C127.932 107.448 132.819 103.67 136.289 106.844L134.691 108.436Z" fill="#FFC727"/>
<path d="M104.087 107.533C94.8591 106.233 85.5686 105.426 76.2549 105.117C73.1296 105.851 70.3725 107.685 68.4865 110.283L66.5973 109.289C68.8259 106.057 72.2058 103.8 76.0446 102.98C80.4761 102.473 103.392 105.281 104.369 105.395L104.087 107.533Z" fill="#FFC727"/>
<path d="M82.6964 110.626C82.6964 110.626 73.9105 97.8846 68.152 101.008C62.3934 104.131 68.897 122.56 75.6478 125.114C76.4897 125.502 77.4012 125.715 78.3276 125.741C79.2539 125.767 80.1759 125.605 81.0383 125.266C81.9007 124.927 82.6856 124.417 83.3459 123.767C84.0062 123.116 84.5283 122.339 84.8807 121.482L82.6964 110.626Z" fill="#EB9481"/>
<path d="M70.1378 106.246C70.1378 106.246 69.9974 106.271 70.1681 106.414C72.3145 107.525 74.2046 109.073 75.717 110.958C77.2294 112.843 78.3306 115.023 78.9497 117.36C78.6803 116.88 78.309 116.465 77.8621 116.145C77.4152 115.824 76.9035 115.605 76.3629 115.503C75.8224 115.402 75.2661 115.42 74.7332 115.556C74.2003 115.692 73.7037 115.943 73.2783 116.292L73.3238 116.545C74.1599 116.284 75.0566 116.289 75.8897 116.56C76.7228 116.831 77.451 117.354 77.9735 118.057C78.8448 119.23 79.5788 120.498 80.1612 121.838C80.3824 122.262 81.1536 122.037 81.0317 121.682C81.2607 115.378 76.6293 106.876 70.1378 106.246Z" fill="#263238"/>
</g>
<defs>
<clipPath id="clip0_102_278">
<rect x="0.0751038" y="1.52588e-05" width="215.26" height="215.26" rx="107.63" fill="white"/>
</clipPath>
</defs>
</svg>
